PathFileType	4	(X/Y/Z)	C:\Users\Biomechanik\SynologyDrive\AlexP\Athlete_03\Athlete_3_25_03_31\Squat_35kg_02\marker_experimental.trc
DataRate	CameraRate	NumFrames	NumMarkers	Units	OrigDataRate	OrigDataStartFrame	OrigNumFrames
200.000000	200.000000	4	55	mm	200.000000	198	530
Frame#	Time	BL			BR			GLAB			RFHD			LFHD			C7			T6			SPINMOL			SPINM2			SPINM3			T12			BELTOL			BELT2			BELT3			SACROL			SACR2			SACR3			LTHOL			LTH2			LTH3			LSHAOL			LSHA2			LSHA3			LHEE			LTOE			LM5			RTHOL			RTH2			RTH3			RSHAOL			RSHA2			RSHA3			RHEE			RTOE			RM5			STRN			XIPH			LACR			LUAOL			LUA2			LUA3			LLAOL			LLA2			LLA3			LWRR			LWRU			RACR			RUAOL			RUA2			RUA3			RLAOL			RLA2			RLA3			RWRR			RWRU			
		X1	Y1	Z1	X2	Y2	Z2	X3	Y3	Z3	X4	Y4	Z4	X5	Y5	Z5	X6	Y6	Z6	X7	Y7	Z7	X8	Y8	Z8	X9	Y9	Z9	X10	Y10	Z10	X11	Y11	Z11	X12	Y12	Z12	X13	Y13	Z13	X14	Y14	Z14	X15	Y15	Z15	X16	Y16	Z16	X17	Y17	Z17	X18	Y18	Z18	X19	Y19	Z19	X20	Y20	Z20	X21	Y21	Z21	X22	Y22	Z22	X23	Y23	Z23	X24	Y24	Z24	X25	Y25	Z25	X26	Y26	Z26	X27	Y27	Z27	X28	Y28	Z28	X29	Y29	Z29	X30	Y30	Z30	X31	Y31	Z31	X32	Y32	Z32	X33	Y33	Z33	X34	Y34	Z34	X35	Y35	Z35	X36	Y36	Z36	X37	Y37	Z37	X38	Y38	Z38	X39	Y39	Z39	X40	Y40	Z40	X41	Y41	Z41	X42	Y42	Z42	X43	Y43	Z43	X44	Y44	Z44	X45	Y45	Z45	X46	Y46	Z46	X47	Y47	Z47	X48	Y48	Z48	X49	Y49	Z49	X50	Y50	Z50	X51	Y51	Z51	X52	Y52	Z52	X53	Y53	Z53	X54	Y54	Z54	X55	Y55	Z55	

199	0.99	215.3094177246094	967.2355957031251	-2225.599609375	220.0281524658203	1003.224426269531	-205.2964324951171	507.2268981933594	1163.926513671875	-1178.121948242188	454.1527709960938	1186.98193359375	-1116.259155273438	465.615478515625	1186.713134765625	-1252.114501953125	272.3692932128906	1049.309936523438	-1192.015258789062	148.6699523925781	937.3670043945314	-1201.150024414062	126.3428573608398	915.3973999023439	-1219.108276367188	117.2668228149414	908.9404907226564	-1170.08349609375	91.55542755126953	860.4146118164064	-1206.812744140625	63.98024368286133	808.7628784179689	-1206.69921875	29.42117500305176	798.7979125976564	-1221.288696289062	27.00851440429688	794.7769165039064	-1170.97314453125	-9.890119552612305	748.7753906250001	-1202.433349609375	-70.29868316650391	650.7015991210939	-1231.548950195312	-69.53875732421875	649.0046997070314	-1180.089233398438	-85.66793823242188	590.7204589843751	-1207.298095703125	119.5002593994141	475.2220764160157	-1501.70947265625	149.2593688964844	402.5171508789064	-1514.195190429688	167.7246246337891	447.562713623047	-1527.88330078125	212.0256652832031	301.0323791503907	-1612.434692382812	149.6934204101562	259.2013549804689	-1585.150390625	194.7342834472656	242.6859588623048	-1601.141723632812	78.3978271484375	70.72183227539071	-1487.666748046875	284.2896423339844	49.12456130981455	-1546.464599609375	215.7200469970703	23.95141220092783	-1634.826049804688	88.84384918212891	466.4318847656251	-910.4757080078125	144.7363739013672	501.5546569824219	-865.291259765625	139.5345001220703	453.3212890625001	-876.1829223632812	178.5145111083984	321.9083251953126	-786.397705078125	183.7144012451172	243.2920227050782	-782.3385009765625	148.0005645751953	270.2347717285157	-803.8713989257812	57.01381301879883	66.55555725097662	-915.993896484375	251.5011749267578	46.87919235229497	-834.9083862304688	168.8951721191406	35.76480102539067	-755.1746826171875	383.6040344238281	888.8167724609376	-1193.930908203125	339.8483276367188	746.8436279296876	-1192.513427734375	303.577880859375	1003.897766113281	-1356.9931640625	179.7191009521484	908.7114257812501	-1450.732299804688	127.0100326538086	871.4055786132814	-1439.006591796875	153.8925323486328	856.2004394531251	-1479.582275390625	117.9513168334961	791.6533813476564	-1548.463623046875	188.6735076904297	780.3928222656251	-1583.721069335938	162.8179931640625	824.3571777343751	-1573.697265625	223.9688720703125	900.8193969726564	-1609.365356445312	243.7231903076172	922.5330810546876	-1535.65478515625	308.4155883789062	1001.437072753906	-1036.775756835938	186.2429962158203	909.1464843750001	-951.3141479492188	152.5761260986328	860.2868041992188	-921.9512329101562	134.7348327636719	872.7722167968751	-969.6131591796875	133.7725219726562	790.8656616210938	-835.2095947265625	146.7758941650391	868.953857421875	-824.067626953125	176.6022033691406	829.7615966796875	-811.5156860351562	219.4990844726562	910.4740600585938	-790.2551879882812	251.0449829101562	937.8954467773438	-859.4089965820311	
200	0.995	215.6007843017578	964.4636840820314	-2225.614501953125	220.0911712646484	1000.409729003906	-205.3105163574218	507.4090576171875	1161.024291992188	-1177.969482421875	454.3053588867188	1184.043212890625	-1116.133422851562	465.8414001464844	1183.859252929688	-1251.968383789062	272.5064086914062	1046.482666015625	-1192.03759765625	148.7822265625	934.6155395507814	-1201.12939453125	126.4981155395508	912.7355346679689	-1219.076049804688	117.4040069580078	906.2287597656251	-1170.055419921875	91.63474273681641	857.7836303710939	-1206.845825195312	64.00576019287109	806.2906494140626	-1206.765258789062	29.47673416137695	796.4625854492189	-1221.332763671875	27.07008743286133	792.4489746093751	-1171.011596679688	-9.879298210144043	746.4758300781251	-1202.459594726562	-70.53033447265625	648.1527099609376	-1231.52490234375	-69.72541809082031	646.4727783203126	-1180.083374023438	-85.78491973876953	588.1492919921876	-1207.243530273438	119.6942672729492	473.6823730468751	-1501.669311523438	149.8253936767578	401.1591186523439	-1514.366333007812	168.0533142089844	446.3387756347657	-1527.93359375	212.4188842773438	300.8795776367189	-1612.46435546875	150.0440521240234	259.1521301269532	-1585.141723632812	195.0362854003906	242.5647888183595	-1601.157348632812	78.43353271484375	70.73759460449227	-1487.628662109375	284.3085327148438	49.09962844848642	-1546.439331054688	215.7244110107422	23.96903610229502	-1634.807983398438	89.09944915771484	464.9062194824219	-910.3115844726562	144.8749084472656	500.4174499511719	-865.2697143554688	139.8493804931641	452.1247253417969	-875.9719848632812	178.8852844238281	321.7466430664063	-786.2341918945312	183.9580841064453	243.1233520507813	-782.1649780273438	148.3158264160156	270.1232604980469	-803.7410888671875	57.07001876831055	66.59189605712896	-916.02392578125	251.5067749023438	46.85039901733403	-834.93310546875	168.8963012695312	35.76541519165044	-755.1732177734375	383.7092590332031	885.9658813476564	-1193.983520507812	339.904052734375	744.0003051757814	-1192.608154296875	303.7497863769531	1001.058288574219	-1357.033935546875	179.8762054443359	905.9415893554689	-1450.782836914062	127.1519622802734	868.6256103515626	-1439.07763671875	154.0249481201172	853.4516601562501	-1479.6748046875	118.1450881958008	788.8572998046876	-1548.572265625	188.8850555419922	777.6044311523439	-1583.763427734375	163.0384368896484	821.5605468750001	-1573.762939453125	224.2154235839844	898.0350341796876	-1609.3828125	243.9149169921875	919.7453613281251	-1535.648315429688	308.5989685058594	998.5710449218751	-1036.771606445312	186.4221954345703	906.2982788085939	-951.32421875	152.7464599609375	857.45166015625	-921.9437255859375	134.9011383056641	869.9331054687501	-969.6046752929688	133.941162109375	788.0382690429688	-835.2030029296875	146.9204864501953	866.1231079101562	-824.0785522460938	176.7693481445312	826.9383544921875	-811.5170288085938	219.6569061279297	907.6611938476562	-790.2688598632812	251.1881713867188	935.0838623046875	-859.4239501953124	
201	1	215.8923492431641	961.7069702148439	-2225.628173828125	220.1485137939453	997.6012573242188	-205.3227996826171	507.5751953125	1158.140502929688	-1177.810668945312	454.4368286132812	1181.1181640625	-1116.006591796875	466.0555114746094	1181.02880859375	-1251.819091796875	272.6374206542969	1043.670532226562	-1192.063842773438	148.8887481689453	931.8806762695314	-1201.11083984375	126.6482543945312	910.0903320312501	-1219.043823242188	117.5368423461914	903.5337524414064	-1170.030517578125	91.7086181640625	855.1690673828126	-1206.880126953125	64.02644348144531	803.8350830078126	-1206.833251953125	29.52210235595703	794.1431884765626	-1221.380249023438	27.12243270874023	790.1376953125001	-1171.052734375	-9.872038841247559	744.1914062500001	-1202.482788085938	-70.75554656982422	645.6094970703126	-1231.499145507812	-69.90719604492188	643.9494018554689	-1180.073486328125	-85.89140319824219	585.5852050781251	-1207.18359375	119.8975524902344	472.141815185547	-1501.626586914062	150.4023132324219	399.8023681640626	-1514.529907226562	168.390380859375	445.1141052246095	-1527.977783203125	212.8162689208984	300.7261352539064	-1612.490356445312	150.3989105224609	259.1015625000001	-1585.130981445312	195.3421936035156	242.4429168701173	-1601.170288085938	78.46990966796875	70.75405120849618	-1487.589965820312	284.3280334472656	49.07402801513681	-1546.413940429688	215.7283935546875	23.987310409546	-1634.789672851562	89.36115264892578	463.3894042968751	-910.1446533203125	145.0233459472656	499.2871093750001	-865.2485961914062	140.1696014404297	450.9367675781251	-875.7601318359375	179.26025390625	321.5800781250001	-786.06591796875	184.2068328857422	242.9503936767579	-781.9906005859375	148.63427734375	270.0075378417969	-803.6062622070312	57.12510681152344	66.62883758544928	-916.0540161132812	251.5125579833984	46.82027816772466	-834.9595947265625	168.8975524902344	35.76625061035161	-755.171875	383.8065795898438	883.1292724609376	-1194.04248046875	339.9501953125	741.1729125976564	-1192.706665039062	303.91552734375	998.2329711914064	-1357.079833984375	180.0316314697266	903.1810913085939	-1450.841796875	127.2931671142578	865.8516235351564	-1439.157104492188	154.1556243896484	850.7136840820314	-1479.777709960938	118.3491592407227	786.0686645507814	-1548.6904296875	189.1095733642578	774.8280029296876	-1583.814575195312	163.2680816650391	818.7743530273439	-1573.834838867188	224.4685211181641	895.2664794921876	-1609.404418945312	244.1054840087891	916.9736328125001	-1535.641235351562	308.779541015625	995.7227172851564	-1036.766723632812	186.6037902832031	903.4634399414064	-951.3358764648438	152.9192657470703	854.6312255859375	-921.9366455078125	135.0663909912109	867.1101074218751	-969.5947265625	134.1103668212891	785.2249145507812	-835.1976318359375	147.0662384033203	863.3075561523438	-824.0892944335938	176.9364013671875	824.1298828125	-811.5184936523438	219.8141937255859	904.8619995117188	-790.2824096679688	251.3287506103516	932.2889404296875	-859.4380493164061	
202	1.005	216.1836090087891	958.9653930664064	-2225.640625	220.1998291015625	994.7986450195312	-205.3333435058593	507.7256774902344	1155.276733398438	-1177.649047851562	454.5489807128906	1178.209716796875	-1115.8798828125	466.2571105957031	1178.221313476562	-1251.669921875	272.7630004882812	1040.873901367188	-1192.093139648438	148.9900360107422	929.1628417968751	-1201.094482421875	126.7933349609375	907.4615478515626	-1219.012329101562	117.6660308837891	900.8560791015626	-1170.008422851562	91.77753448486328	852.5708007812501	-1206.9150390625	64.04273223876953	801.3955078125001	-1206.902221679688	29.5572395324707	791.8394775390626	-1221.429443359375	27.16638374328613	787.8426513671876	-1171.094604492188	-9.867439270019531	741.9221191406251	-1202.500244140625	-70.97269439697266	643.0679931640626	-1231.472534179688	-70.08478546142578	641.4312133789064	-1180.058837890625	-85.98831939697266	583.0254516601564	-1207.118896484375	120.1110382080078	470.6017150878907	-1501.585815429688	150.9890899658203	398.4480285644532	-1514.691284179688	168.7355651855469	443.8895263671876	-1528.020751953125	213.2162780761719	300.5711975097657	-1612.51611328125	150.7563323974609	259.0491027832032	-1585.121215820312	195.6507873535156	242.3196868896485	-1601.18310546875	78.50702667236328	70.77138519287118	-1487.550659179688	284.3480834960938	49.04781341552744	-1546.388671875	215.7319183349609	24.00613784790049	-1634.771484375	89.62867736816406	461.8799743652344	-909.9752807617188	145.1800994873047	498.1629638671876	-865.22705078125	140.49462890625	449.7566528320313	-875.546875	179.6393737792969	321.4075622558594	-785.8912353515625	184.4619750976562	242.7718353271485	-781.81689453125	148.9558258056641	269.8866577148438	-803.4655151367188	57.17923355102539	66.66619873046881	-916.08447265625	251.5185546875	46.78907394409185	-834.98779296875	168.8990020751953	35.7675285339356	-755.1707153320312	383.8964233398438	880.3065795898439	-1194.105712890625	339.9870300292969	738.3610839843751	-1192.806396484375	304.075927734375	995.4221191406251	-1357.129638671875	180.1842956542969	900.4304809570314	-1450.9091796875	127.4344482421875	863.0842895507814	-1439.244018554688	154.2851104736328	847.9868774414064	-1479.8896484375	118.5632934570312	783.2881469726564	-1548.816528320312	189.3478393554688	772.0631713867189	-1583.8740234375	163.5074768066406	815.9988403320314	-1573.911254882812	224.7281494140625	892.5134887695314	-1609.4296875	244.2948913574219	914.2182006835939	-1535.633178710938	308.9565734863281	992.8921508789064	-1036.760986328125	186.7872314453125	900.6428833007814	-951.3485107421875	153.0945281982422	851.8262939453125	-921.9295043945312	135.2297058105469	864.3045043945314	-969.5827026367188	134.2789764404297	782.4267578125	-835.1929321289062	147.2122650146484	860.50830078125	-824.0988159179688	177.1024322509766	821.3369750976562	-811.5196533203125	219.9704437255859	902.0772705078125	-790.2952270507812	251.4663696289062	929.5111694335938	-859.4511718749999	
